<?xml version="1.0" encoding="UTF-8"?>
<svg width="200mm" height="120mm" version="1.1" viewBox="0 0 200 120" xmlns="http://www.w3.org/2000/svg">
 <g fill="#012169">
  <path d="m9.8447e-5 0h200v120h-200z"/>
  <rect x="-144.27" y="48" width="0" height="0"/>
 </g>
 <path d="m-6.2117e-4 9.0699e-5v13.994h5.2917e-4l43.342 26.006h-43.343l5.2917e-4 20-5.2917e-4 20h43.343l-43.342 26.006v13.994h23.324l56.675-34.006-5.29e-4 34.006h40.001v-34.006l56.676 34.006h23.325v-13.994h-5.3e-4l-1.586-0.95136-41.756-25.054h43.342v-5.29e-4h5.3e-4l-5.3e-4 -40h-43.342l43.342-26.006v-13.994h-23.324l-56.675 34.006 5.3e-4 -34.006h-40.001v34.006l-56.676-34.006z" fill="#fff"/>
 <path d="m-6.2117e-4 9.0699e-5v9.3291l51.117 30.67h15.549zm88 0v48h-88v24h88v48h24v-48h88v-24h-88v-48zm96.451 0-64.45 38.671v1.3291h13.333l66.666-40zm-117.79 80-66.666 40h15.549l64.45-38.671v-1.3291zm66.667 0 66.667 40v-9.3297l-51.117-30.67z" fill="#c8102e"/>
</svg>
