<?xml version="1.0" encoding="UTF-8"?>
<svg width="200mm" height="100mm" version="1.1" viewBox="0 0 200 100" xmlns="http://www.w3.org/2000/svg">
 <g>
  <path d="m2.6693e-4 0h85.051v33.721h-85.051z" fill="#fff"/>
  <path d="m2.7417e-4 0 66.668 33.041h-66.668z" fill="#c8102e"/>
  <path d="m200 6.4576e-5h-83.335v33.041h83.335z" fill="#c8102e"/>
  <path d="m200 6.4576e-5 -72.6 35.981h72.6z" fill="#fff"/>
  <path d="m200 99.095h-89.132v-35.339h89.132z" fill="#fff"/>
  <path d="m200 99.095-66.668-33.041h66.668z" fill="#c8102e"/>
  <path d="m3.4655e-4 100 83.335-0.87753-4e-6 -32.163h-83.335z" fill="#c8102e"/>
  <path d="m3.4655e-4 100 74.891-37.117h-74.891z" fill="#fff"/>
 </g>
 <g stroke-width=".26458">
  <path d="m83.335 0v33.041h-31.564l-51.77-25.658v55.395l0.016683 4.1841h81.541l-66.662 33.038 68.437-0.87745h33.334v-33.041h31.617l51.714 25.631v-58.671h-81.562l66.668-33.041h-98.437zm0 66.96h0.01668l-0.01668 2.4236z" fill="#fff"/>
  <path d="m22.344 0 60.99 30.226v-30.226zm94.324 0v30.226l60.99-30.226zm-116.67 11.074v21.967h44.323zm200 0-44.323 21.967h44.323zm-44.323 54.98 44.323 21.967v-21.967zm-155.68 0.90484v21.966l44.323-21.966zm116.67 1.9089v30.226h60.99zm-33.334 0.90484-60.99 30.226 60.99-0.87745z" fill="#012169"/>
  <path d="m90 0v39.647h-90v19.824h90v39.647h20v-39.647h89.997v-19.824h-89.997v-39.647h-20z" fill="#c8102e"/>
 </g>
</svg>
